<svg xmlns="http://www.w3.org/2000/svg" viewBox="0 0 500 500"><g id="freepik--Shadow--inject-3"><ellipse id="freepik--path--inject-3" cx="250" cy="416.24" rx="193.89" ry="11.32" style="fill:#f5f5f5"></ellipse></g><g id="freepik--Plant--inject-3"><path d="M129.17,342c-10.52-14.28,1.17-26.15-6.69-35.38-9-10.61-23.89,1.66-18.22,10.44s-13.19,21.19-4.08,33.84c11.39,15.81-10.35,22,7.59,39.32,0,0,7.38,1.15,13.14-.4s7.85-10.92,2.16-18S139.69,356.23,129.17,342Z" style="fill:#407BFF"></path><path d="M111.22,385.54a.54.54,0,0,1-.39-.17c-5.9-6.58-3-11.65-.28-16.55s5.29-9.37.94-15.76c-9.32-13.68-13.87-21.17-7.28-28.79a.52.52,0,0,1,.79.69c-6.09,7.05-1.91,13.9,7.36,27.51,4.72,6.93,1.74,12.21-.89,16.87-2.82,5-5.25,9.31.14,15.33a.51.51,0,0,1,0,.74A.53.53,0,0,1,111.22,385.54Z" style="fill:#fff;opacity:0.30000000000000004"></path><path d="M124.5,327.55a.52.52,0,0,1-.52-.49c-.54-6.69-5.06-10.81-9-14.44-3.38-3.08-6.29-5.73-5.74-9.22a.52.52,0,0,1,.6-.44.53.53,0,0,1,.44.6c-.47,2.93,2.26,5.41,5.41,8.28,3.93,3.58,8.82,8,9.39,15.14a.53.53,0,0,1-.49.56Z" style="fill:#fff;opacity:0.30000000000000004"></path><path d="M130,380.23H97.3A2.7,2.7,0,0,0,94.81,384c3.59,8.23,4.92,16.8,5.33,25.12a7.52,7.52,0,0,0,7.52,7.13h12a7.52,7.52,0,0,0,7.53-7.13c.4-8.32,1.73-16.89,5.33-25.12A2.7,2.7,0,0,0,130,380.23Z" style="fill:#263238"></path></g><g id="freepik--Character--inject-3"><path d="M329.13,187.42c-.15.83-.28,1.47-.43,2.18l-.51,2.06c-.35,1.36-.71,2.72-1.15,4.06a69.52,69.52,0,0,1-3.06,7.92,53.89,53.89,0,0,1-4.27,7.63l-.64.91-.32.46-.26.34-.33.43a9.71,9.71,0,0,1-3.32,2.54,12.93,12.93,0,0,1-6.21,1.05,31.24,31.24,0,0,1-9-2.13A67.27,67.27,0,0,1,292,211.4a106.48,106.48,0,0,1-13.8-8.7,2.87,2.87,0,0,1,2.92-4.9l.08,0c4.63,2.17,9.45,4.24,14.18,6,2.38.87,4.76,1.66,7.08,2.27a24,24,0,0,0,6.42.95,3,3,0,0,0,1.51-.32s-.14,0-.24.11l0,0v0l0-.09.21-.37.42-.75a54.87,54.87,0,0,0,2.9-6.45c.88-2.25,1.63-4.58,2.33-6.94.33-1.18.69-2.36,1-3.55l.85-3.46.06-.27a5.77,5.77,0,0,1,11.28,2.39Z" style="fill:#ffc3bd"></path><path d="M281.22,203.81l-5.93.18.29-9.16s5.82,1.46,8.19,5.13Z" style="fill:#ffc3bd"></path><path d="M269.05,197.84l.07-.32a3.53,3.53,0,0,1,3.82-3l2.64.35-.29,9.16-3-.57C270.08,203,268.53,200.36,269.05,197.84Z" style="fill:#ffc3bd"></path><path d="M325.08,171c-8.47,3.61-10.66,13.72-10.66,20.55a52.45,52.45,0,0,0,14.31,6.34s7.57-9.25,8.11-14.92C337.82,172.58,330.4,168.67,325.08,171Z" style="fill:#407BFF"></path><path d="M335.93,175.82a9.13,9.13,0,0,0-3.21-4c-2.67-.13-5.34-.35-8-.65a14.8,14.8,0,0,0-4.67,3.38A119.61,119.61,0,0,0,335.93,175.82Z" style="fill:#fff"></path><path d="M336.35,185.13a10.17,10.17,0,0,0,.49-2.21,17.16,17.16,0,0,0,.08-1.72,119,119,0,0,1-20.09-1.73,23.77,23.77,0,0,0-1.35,3.79A118,118,0,0,0,336.35,185.13Z" style="fill:#fff"></path><path d="M333.82,190.5a117.82,117.82,0,0,1-19.27-1.9c-.09,1-.13,2-.13,2.9.85.56,1.68,1.05,2.52,1.52a116.63,116.63,0,0,0,14.38,1.35C332.12,193.23,333,191.9,333.82,190.5Z" style="fill:#fff"></path><polygon points="366.25 409.65 357 410.52 354.57 389.18 363.82 388.3 366.25 409.65" style="fill:#ffc3bd"></polygon><polygon points="430.7 392.85 422.18 396.63 411.29 378.04 419.81 374.26 430.7 392.85" style="fill:#ffc3bd"></polygon><path d="M419.77,393.25l7.25-7.57a.7.7,0,0,1,1-.09l6.61,5a1.53,1.53,0,0,1,.12,2.25c-2.57,2.6-3.94,3.72-7.13,7.05-2,2-6,6.87-8.72,9.7s-5.55.26-4.67-1.16c4-6.39,4.64-10.37,4.9-13.61A2.56,2.56,0,0,1,419.77,393.25Z" style="fill:#263238"></path><path d="M355.91,405.09h11a.89.89,0,0,1,.85.67l2.15,8.72a1.41,1.41,0,0,1-1.39,1.74c-3.89,0-5.73-.27-10.57-.27-3,0-10.69.29-14.8.29s-4.75-4.07-3.08-4.44c7.52-1.65,11.88-3.93,14.25-6.1A2.28,2.28,0,0,1,355.91,405.09Z" style="fill:#263238"></path><polygon points="354.57 389.19 355.93 401.12 365.18 400.19 363.82 388.31 354.57 389.19" style="opacity:0.2"></polygon><polygon points="419.82 374.26 411.29 378.04 416.91 387.62 425.43 383.84 419.82 374.26" style="opacity:0.2"></polygon><path d="M373.65,215.9l-36.08,11c-10.34-22.45-15.29-35.32-17.61-42.68a11.46,11.46,0,0,1,5.93-13.76c1.33-.65,2.74-1.32,4.17-1.95.91-.41,1.83-.8,2.74-1.18a120.68,120.68,0,0,1,16.38-5c.82-.22,1.64-.4,2.45-.59,2.66-.59,5.24-1,7.42-1.35a5.52,5.52,0,0,1,6.29,5.19c.22,4.38.47,8.29.75,11.83.53,6.59,1.15,11.87,1.9,16.44A142.51,142.51,0,0,0,373.65,215.9Z" style="fill:#407BFF"></path><path d="M365.29,165.12a5.56,5.56,0,0,0-1.94-3.49A275.42,275.42,0,0,1,329,169c-1.07.49-2.13,1-3.13,1.47a11.43,11.43,0,0,0-4.07,3.31A275.13,275.13,0,0,0,365.29,165.12Z" style="fill:#fff"></path><path d="M365.62,170.55a276.22,276.22,0,0,1-46.08,8.72,11.46,11.46,0,0,0,.11,3.78,277.77,277.77,0,0,0,46.23-8.54C365.79,173.24,365.7,171.92,365.62,170.55Z" style="fill:#fff"></path><path d="M366.67,183.81c-.13-1.26-.25-2.55-.37-3.92a278.16,278.16,0,0,1-45.07,8.18c.39,1.12.83,2.34,1.32,3.65A278.08,278.08,0,0,0,366.67,183.81Z" style="fill:#fff"></path><path d="M367.85,193c-.19-1.23-.38-2.51-.55-3.86a278,278,0,0,1-42.84,7.57c.45,1.16.94,2.36,1.46,3.64A279,279,0,0,0,367.85,193Z" style="fill:#fff"></path><path d="M369.62,202c-.29-1.23-.56-2.48-.83-3.78A280.34,280.34,0,0,1,328,205.31c.49,1.16,1,2.37,1.54,3.62A279.41,279.41,0,0,0,369.62,202Z" style="fill:#fff"></path><path d="M372.05,210.84c-.38-1.25-.74-2.48-1.09-3.72a278.5,278.5,0,0,1-39.28,6.77c.52,1.17,1.05,2.38,1.61,3.62A280.35,280.35,0,0,0,372.05,210.84Z" style="fill:#fff"></path><path d="M351,162.69l-19.26,6s-5,4.73,6.08,9.65C359.5,167.54,351,162.69,351,162.69Z" style="fill:#fff"></path><path d="M366.09,177.44c0-.35-.06-.71-.08-1.07h0a4.53,4.53,0,0,0-3.28,7.38,34.33,34.33,0,0,0,4.43,4.45C366.77,185,366.41,181.47,366.09,177.44Z" style="opacity:0.30000000000000004"></path><path d="M343.34,152.17c1.43,4.44,3.71,8.8,7.16,10.1,0,0,7.4,4.47-12.51,13.95-10.71-4.75-6-7.76-6-7.76,6.09-3.6,4.73-7.48.46-13.29l4.59-3.54C338.61,149.27,342.52,149.61,343.34,152.17Z" style="fill:#ffc3bd"></path><path d="M337.06,151.63c1.47-2.23,5-2,6.12.14a19.69,19.69,0,0,1-7.16,10c-.38-1.93-1.69-4.1-3.55-6.63Z" style="opacity:0.2"></path><path d="M324.49,128.42c-10,14-6.41,25.5,1.84,26.91C334.8,146.55,324.49,128.42,324.49,128.42Z" style="fill:#263238"></path><path d="M348.18,137.05c-1,9.25-1.2,13.18-6,17.83-7.26,7-18.22,4-20-5.28-1.58-8.36.3-22.08,9.39-25.56S349.17,127.8,348.18,137.05Z" style="fill:#ffc3bd"></path><path d="M321.41,135.75l-.06-.06a.46.46,0,0,1,.07-.63,4.24,4.24,0,0,1,3.86-1,.45.45,0,0,1-.27.85,3.41,3.41,0,0,0-3.05.81A.42.42,0,0,1,321.41,135.75Z" style="fill:#263238"></path><path d="M350.35,145.27a7.63,7.63,0,0,1-3.5,4.46c-2.25,1.26-3.92-.6-3.75-3,.15-2.2,1.51-5.51,4-5.78S351,143,350.35,145.27Z" style="fill:#ffc3bd"></path><path d="M341.41,132.89c-4.24,7.67-2,20.36,4.42,23.5,5.61,2.76,9.28-1.06,8.23-4.11,3.77.39,8.93-4.61,5.05-8.34-2.72-2.61-6-10.38-4.72-15.66s-2.45-6.22-5.06-5.11c.17-7.17-24.47-3.74-27.76,4-2.59,6.14,7.31,4.56,8.84,2.78C330.51,134.44,339.92,134.28,341.41,132.89Z" style="fill:#263238"></path><path d="M363.35,126c.08,2.28-1.45,4.1-3.42,4.07a4.12,4.12,0,0,1-3.7-4.18c-.07-2.28,1.46-4.1,3.42-4.07A4.12,4.12,0,0,1,363.35,126Z" style="fill:#407BFF"></path><path d="M326.25,122.61c2.26-2.5,14.38-8.64,27.9-3.26,7.25,2.88,5.25,8,3.39,6.92A3.56,3.56,0,0,1,354,131.1C354.57,133.41,329.41,129.67,326.25,122.61Z" style="fill:#407BFF"></path><path d="M326.25,122.61c2.26-2.5,14.38-8.64,27.9-3.26,7.25,2.88,5.25,8,3.39,6.92A3.56,3.56,0,0,1,354,131.1C354.57,133.41,329.41,129.67,326.25,122.61Z" style="opacity:0.30000000000000004"></path><path d="M326.72,121.78c-1.14,0-4.14,2.77-4.1,3.8,6.82,1,25.54,6.34,32.68,11.69,1.14-3.69.34-5.87.34-5.87S341.86,121.78,326.72,121.78Z" style="fill:#407BFF"></path><path d="M337.57,227s2.54,47.2,4.24,83.48c1.36,28.84,11.07,85.41,11.07,85.41l14.12-2s1.65-56.71-5.74-82.07c6.42-41,17.89-80.24,5.27-93.85Z" style="fill:#263238"></path><polygon points="368.37 389.75 350.64 390.59 351.93 398.25 367.75 397.17 368.37 389.75" style="fill:#263238"></polygon><path d="M357.77,252.83l14.34-10.15c-.66,14.45-4.48,32.89-8,52.54C358.4,280.46,354.88,264.8,357.77,252.83Z" style="opacity:0.30000000000000004"></path><path d="M345.48,224.65s18.82,48.68,26.92,83.93a73.55,73.55,0,0,0,4.05,12.64c12.11,28.23,36.26,62.68,36.26,62.68L424,377.75S402.34,318.49,393,304.86c-2.3-40.56-3.35-76.29-19.38-89Z" style="fill:#263238"></path><polygon points="413.11 386.68 426.32 380.09 423.96 372.9 408.56 380.94 413.11 386.68" style="fill:#263238"></polygon><path d="M373.6,213.61l2.52,2.75c.2.21,0,.56-.44.69l-37.84,11.59c-.32.1-.64,0-.71-.17l-1.23-3.16c-.08-.21.15-.49.5-.6l36.54-11.2A.66.66,0,0,1,373.6,213.61Z" style="fill:#407BFF"></path><path d="M373.6,213.61l2.52,2.75c.2.21,0,.56-.44.69l-37.84,11.59c-.32.1-.64,0-.71-.17l-1.23-3.16c-.08-.21.15-.49.5-.6l36.54-11.2A.66.66,0,0,1,373.6,213.61Z" style="opacity:0.4"></path><path d="M369.83,219.22l1-.3c.19-.06.31-.2.26-.32l-1.62-4.09c-.05-.12-.25-.17-.44-.11l-1,.3c-.2.06-.32.21-.27.33l1.63,4.08C369.43,219.23,369.63,219.28,369.83,219.22Z" style="fill:#263238"></path><path d="M340.69,228.15l1-.3c.19-.06.31-.2.27-.32l-1.63-4.09c-.05-.12-.25-.17-.44-.11l-1,.3c-.19.06-.31.21-.27.33l1.63,4.08C340.3,228.16,340.49,228.21,340.69,228.15Z" style="fill:#263238"></path><path d="M355.26,223.69l1-.3c.19-.06.31-.21.26-.33L354.88,219c-.05-.12-.25-.17-.44-.11l-1,.3c-.19.06-.32.21-.27.32l1.63,4.09C354.86,223.7,355.06,223.75,355.26,223.69Z" style="fill:#263238"></path><path d="M332.78,139.36c0,.75-.46,1.35-.94,1.34s-.85-.63-.82-1.38.46-1.36.94-1.35S332.81,138.6,332.78,139.36Z" style="fill:#263238"></path><path d="M324.38,139.17c0,.75-.45,1.35-.94,1.34s-.85-.63-.82-1.38.46-1.36.95-1.35S324.42,138.41,324.38,139.17Z" style="fill:#263238"></path><path d="M323.78,137.83l-1.76-.56S322.87,138.7,323.78,137.83Z" style="fill:#263238"></path><path d="M327.31,139.5a25.16,25.16,0,0,1-3.46,5.72c1.13,1.15,3.17.68,3.17.68Z" style="fill:#ed847e"></path><path d="M330.14,148.81a.21.21,0,0,1-.12-.21.22.22,0,0,1,.22-.22,6,6,0,0,0,4.91-2.22.21.21,0,0,1,.3-.06.22.22,0,0,1,.05.31,6.37,6.37,0,0,1-5.28,2.42Z" style="fill:#263238"></path><path d="M335.59,136.84a.33.33,0,0,1-.17-.14,3.37,3.37,0,0,0-2.73-1.54.44.44,0,0,1-.45-.42.47.47,0,0,1,.43-.47,4.21,4.21,0,0,1,3.47,1.91.47.47,0,0,1-.11.62A.42.42,0,0,1,335.59,136.84Z" style="fill:#263238"></path><path d="M417.28,397.63l-.15,0a1.23,1.23,0,0,1-1.07-.56.75.75,0,0,1-.13-.76c.41-1.13,3.64-1.89,4-2a.2.2,0,0,1,.22.08.25.25,0,0,1,0,.25C419.56,395.72,418.39,397.42,417.28,397.63Zm2.24-2.71c-1.29.34-3,1-3.19,1.56a.34.34,0,0,0,.07.33.8.8,0,0,0,.71.39C417.73,397.17,418.62,396.32,419.52,394.92Z" style="fill:#407BFF"></path><path d="M419.81,394.84c-1.1.21-3.35,0-3.9-.84a.79.79,0,0,1,.09-1,1.1,1.1,0,0,1,.85-.47c1.33-.1,3.21,1.78,3.29,1.86a.22.22,0,0,1,.05.21.2.2,0,0,1-.15.16Zm-3-1.83a.71.71,0,0,0-.45.29c-.17.22-.13.36-.07.44.36.55,2.14.85,3.25.7-.66-.59-1.85-1.5-2.64-1.44Z" style="fill:#407BFF"></path><path d="M351,406.91a3.64,3.64,0,0,1-2.14-.51,1.35,1.35,0,0,1-.53-1.06.65.65,0,0,1,.3-.6c1-.67,4.72,1,5.45,1.38a.22.22,0,0,1,.12.22.25.25,0,0,1-.18.19A14.62,14.62,0,0,1,351,406.91Zm-1.7-1.9a.78.78,0,0,0-.44.1.21.21,0,0,0-.09.2.93.93,0,0,0,.37.74c.63.49,2.15.55,4.13.19A13.39,13.39,0,0,0,349.28,405Z" style="fill:#407BFF"></path><path d="M354,406.53h-.08c-1.23-.51-3.68-2.52-3.51-3.56,0-.23.2-.51.77-.58,2.2-.26,3,3.72,3.05,3.89a.24.24,0,0,1-.08.21A.2.2,0,0,1,354,406.53Zm-2.63-3.72h-.15c-.23,0-.36.09-.37.2-.1.6,1.59,2.19,2.83,2.89C353.37,405,352.64,402.81,351.32,402.81Z" style="fill:#407BFF"></path><path d="M332.17,138l-1.76-.57S331.26,138.89,332.17,138Z" style="fill:#263238"></path><path d="M364.88,164.65c2.07,2.12,3.95,4.27,5.88,6.45s3.75,4.41,5.55,6.71,3.57,4.66,5.25,7.14a52.93,52.93,0,0,1,4.75,8.21l.12.28a4.8,4.8,0,0,1-.11,4.14,13.32,13.32,0,0,1-2.86,3.74,14.53,14.53,0,0,1-3.55,2.4,21,21,0,0,1-7.06,1.93,33.55,33.55,0,0,1-6.57,0c-1.06-.09-2.11-.26-3.15-.43a30.65,30.65,0,0,1-3.16-.7,2.88,2.88,0,0,1,.51-5.64l.25,0,2.69-.23c.91-.09,1.82-.23,2.71-.37a33.86,33.86,0,0,0,5.09-1.13,20.35,20.35,0,0,0,2.21-.83,13.28,13.28,0,0,0,1.78-1,4.12,4.12,0,0,0,1.67-2.1v4.42a53,53,0,0,0-4.26-6.22c-1.65-2.12-3.38-4.24-5.17-6.34s-3.6-4.2-5.45-6.28-3.73-4.18-5.53-6.21l0,0a5.77,5.77,0,0,1,8.44-7.86Z" style="fill:#ffc3bd"></path><path d="M363.09,198.92l-8.78-.45,2.17,8.84s6.71-.9,9.48-4.32Z" style="fill:#ffc3bd"></path><path d="M349.13,202.24l.7,2.78A2.53,2.53,0,0,0,352,206.9l4.44.41-2.17-8.84-3.26.68A2.52,2.52,0,0,0,349.13,202.24Z" style="fill:#ffc3bd"></path><path d="M360.13,160.36c7.62-.42,15.31,12.47,15.31,12.47C371.6,179,367.66,184.31,363.5,188c0,0-12.21-7.21-10.9-17.33C353.26,165.54,354.22,160.69,360.13,160.36Z" style="fill:#407BFF"></path><path d="M363,160.78a7.8,7.8,0,0,0-2.85-.42c-5.22.29-6.58,4.1-7.28,8.49A118.66,118.66,0,0,0,363,160.78Z" style="fill:#fff"></path><path d="M370.67,166.47a29.81,29.81,0,0,0-2.84-2.77,119.13,119.13,0,0,1-14.9,11.61,14.77,14.77,0,0,0,1.54,3.68A119.06,119.06,0,0,0,370.67,166.47Z" style="fill:#fff"></path><path d="M375.44,172.83s-.5-.85-1.38-2.1a120.18,120.18,0,0,1-16.33,12.53,30.7,30.7,0,0,0,3,2.73,121.14,121.14,0,0,0,11.74-8.6C373.46,175.93,374.46,174.41,375.44,172.83Z" style="fill:#fff"></path></g><g id="freepik--bread-2--inject-3"><path d="M356.6,309.49c.92,10.81-19.93,40.51-87.71,46.24s-93.31-20.05-94.22-30.86,39.07-23,89.31-27.26S355.69,298.68,356.6,309.49Z" style="fill:#407BFF"></path><path d="M356.6,309.49c.92,10.81-19.93,40.51-87.71,46.24s-93.31-20.05-94.22-30.86,39.07-23,89.31-27.26S355.69,298.68,356.6,309.49Z" style="fill:#fff;opacity:0.6000000000000001"></path><ellipse cx="265.64" cy="317.18" rx="89.78" ry="17.79" transform="translate(-25.77 23.5) rotate(-4.83)" style="fill:#407BFF;opacity:0.4"></ellipse></g><g id="freepik--Hamburger--inject-3"><path d="M236.46,253.7c-49.23,6-88.17,18.76-87,28.52l2.42,19.85c1.19,9.75,42,12.8,91.27,6.81s88.17-18.76,87-28.51l-2.42-19.86h0C326.54,250.76,285.68,247.71,236.46,253.7Z" style="fill:#407BFF"></path><path d="M189,291c-12.85,0-23.29-.88-29.85-2.65-4.94-1.34-7.48-3.13-7.77-5.48a1,1,0,1,1,2-.24c.1.8,1.05,2.36,6.31,3.78,13.88,3.76,45.56,3.42,80.71-.86a1,1,0,0,1,1.11.87,1,1,0,0,1-.87,1.12A441.08,441.08,0,0,1,189,291Z" style="fill:#fff"></path><path d="M269.84,283.08a1,1,0,0,1-.18-2c4.61-.84,9.1-1.74,13.35-2.68a1,1,0,0,1,1.19.77,1,1,0,0,1-.76,1.19c-4.28.94-8.79,1.84-13.41,2.69Z" style="fill:#fff"></path><path d="M304.14,275a1,1,0,0,1-.3-1.95c15.36-4.81,20.54-8.93,20.27-11.19a1,1,0,1,1,2-.24c.51,4.19-6.77,8.68-21.65,13.34A1,1,0,0,1,304.14,275Z" style="fill:#fff"></path></g><g id="freepik--Cheese--inject-3"><polygon points="216.41 267.27 121.97 255.76 212.21 225.63 306.64 237.14 216.41 267.27" style="fill:#fff"></polygon><path d="M216.41,268.27h-.12l-94.44-11.5a1,1,0,0,1-.87-.9,1,1,0,0,1,.68-1.05l90.23-30.12a.94.94,0,0,1,.44-.05l94.44,11.51a1,1,0,0,1,.87.89,1,1,0,0,1-.68,1.05l-90.24,30.13A1.06,1.06,0,0,1,216.41,268.27Zm-89.91-13,89.81,10.94,85.81-28.65-89.81-10.95Z" style="fill:#407BFF"></path><path d="M185.08,244.15a1,1,0,0,1-1-.84,1,1,0,0,1,.82-1.15l40.83-7a1,1,0,1,1,.34,2l-40.83,7Z" style="fill:#407BFF"></path><path d="M217.43,247.14a1,1,0,0,1-.17-2l40.83-7a1,1,0,1,1,.34,2l-40.83,7Z" style="fill:#407BFF"></path></g><g id="freepik--Onion--inject-3"><path d="M182.93,219.1c-.51-4.75-18-8.34-38.44-3.23s-37.17,8.66-36.73,12.69q-1.77-1.51-3.54-3.11c-.55-5.06,17.54-8.83,39.74-14.52s41.25-.5,41.89,5.48C184.88,217.29,183.9,218.18,182.93,219.1Z" style="fill:#407BFF"></path><path d="M182.93,219.1c-.51-4.75-18-8.34-38.44-3.23s-37.17,8.66-36.73,12.69q-1.77-1.51-3.54-3.11c-.55-5.06,17.54-8.83,39.74-14.52s41.25-.5,41.89,5.48C184.88,217.29,183.9,218.18,182.93,219.1Z" style="opacity:0.2"></path><path d="M173.38,209c-7.74-1.46-18.14-.75-29.45,1.73-22.53,5.8-40.9,9.42-40.36,14.46.13,1.17.25,2.33.38,3.49.64,6,20,11.33,42.51,5.54s40.9-9.43,40.36-14.47c-.12-1.16-.25-2.33-.38-3.49C186.15,213.48,181.12,210.34,173.38,209Zm-27.51,19.69c-20.79,5.21-38.5,1.51-39-3.26-.44-4,16.5-7.46,37.29-12.67s38.5-1.51,39,3.27C183.59,220,166.66,223.43,145.87,228.64Z" style="fill:#407BFF"></path><path d="M275.81,209.89c0-4.78-17-10.16-37.9-7.19s-37.86,4.76-37.84,8.82q-1.6-1.7-3.21-3.45c0-5.09,18.36-7,41-10.33S279,201.5,279,207.52C277.93,208.29,276.87,209.08,275.81,209.89Z" style="fill:#407BFF"></path><path d="M275.81,209.89c0-4.78-17-10.16-37.9-7.19s-37.86,4.76-37.84,8.82q-1.6-1.7-3.21-3.45c0-5.09,18.36-7,41-10.33S279,201.5,279,207.52C277.93,208.29,276.87,209.08,275.81,209.89Z" style="opacity:0.2"></path><path d="M267.36,198.81c-7.55-2.26-18-2.63-29.47-1.33-23,3.44-41.66,5.13-41.64,10.21,0,1.17,0,2.34,0,3.51,0,6,18.71,13.34,41.72,9.9s41.65-5.14,41.64-10.21c0-1.17,0-2.34,0-3.51C279.59,204.63,274.91,201,267.36,198.81ZM238,215.54c-21.22,3-38.45-2.48-38.47-7.28,0-4,17.19-5.7,38.41-8.74s38.44,2.48,38.46,7.29C276.38,210.85,259.17,212.51,238,215.54Z" style="fill:#407BFF"></path><path d="M230.21,186.6c-.6-4.75-18.1-8-38.49-2.56s-37,9.32-36.5,13.34q-1.8-1.49-3.6-3c-.64-5.05,17.38-9.14,39.48-15.22s41.24-1.23,42,4.73C232.12,184.74,231.17,185.66,230.21,186.6Z" style="fill:#407BFF"></path><path d="M230.21,186.6c-.6-4.75-18.1-8-38.49-2.56s-37,9.32-36.5,13.34q-1.8-1.49-3.6-3c-.64-5.05,17.38-9.14,39.48-15.22s41.24-1.23,42,4.73C232.12,184.74,231.17,185.66,230.21,186.6Z" style="opacity:0.2"></path><path d="M220.48,176.62c-7.77-1.33-18.15-.44-29.42,2.24C168.64,185.06,150.34,189,151,194c.14,1.16.29,2.32.44,3.49.75,6,20.18,11,42.6,4.77s40.73-10.15,40.1-15.18c-.15-1.16-.29-2.32-.44-3.48C233.33,180.92,228.24,177.87,220.48,176.62Zm-27.16,20.17c-20.69,5.58-38.46,2.19-39.06-2.57-.51-4,16.37-7.75,37.06-13.33s38.46-2.19,39.06,2.57C230.89,187.47,214,191.21,193.32,196.79Z" style="fill:#407BFF"></path></g><g id="freepik--bread-1--inject-3"><path d="M225.33,111.19C222.47,100.72,192.68,80,127.07,98s-80.72,51-77.85,61.41,44.6,8.16,93.24-5.14S228.2,121.65,225.33,111.19Z" style="fill:#407BFF"></path><path d="M225.33,111.19C222.47,100.72,192.68,80,127.07,98s-80.72,51-77.85,61.41,44.6,8.16,93.24-5.14S228.2,121.65,225.33,111.19Z" style="fill:#fff;opacity:0.6000000000000001"></path><ellipse cx="137.27" cy="135.27" rx="89.78" ry="17.79" transform="translate(-30.83 41.02) rotate(-15.3)" style="fill:#407BFF;opacity:0.4"></ellipse><path d="M95.33,108.63a5,5,0,0,1-4.85,5.77,5,5,0,0,1,4.85-5.77Z" style="fill:#407BFF"></path><path d="M130.91,108.38a5,5,0,0,1-7.54-.26,5,5,0,0,1,7.54.26Z" style="fill:#407BFF"></path><path d="M150.71,93.88a3.78,3.78,0,0,1-5.74-.2,3.8,3.8,0,0,1,5.74.2Z" style="fill:#407BFF"></path><path d="M188.89,95.34a3.8,3.8,0,0,1-5.33,2.15,3.8,3.8,0,0,1,5.33-2.15Z" style="fill:#407BFF"></path><path d="M168.5,94.69a3.8,3.8,0,0,1-5.33,2.16,3.8,3.8,0,0,1,5.33-2.16Z" style="fill:#407BFF"></path><path d="M85.82,122.72a3.8,3.8,0,0,1-5.33,2.15,3.8,3.8,0,0,1,5.33-2.15Z" style="fill:#407BFF"></path><path d="M108,115.64a3.8,3.8,0,0,1-5.75.11,3.8,3.8,0,0,1,5.75-.11Z" style="fill:#407BFF"></path><path d="M113.67,103.9a3,3,0,0,1-3.84,2.4,3,3,0,0,1,3.84-2.4Z" style="fill:#407BFF"></path><path d="M68.9,128.59a3.66,3.66,0,0,1-.73,2.39,3.58,3.58,0,0,1-2.27,1,3,3,0,0,1,3-3.4Z" style="fill:#407BFF"></path><path d="M155.9,101.6a3,3,0,0,1-3.84,2.41,3,3,0,0,1,3.84-2.41Z" style="fill:#407BFF"></path><path d="M202.84,93.7A3,3,0,0,1,199,96.1,3.69,3.69,0,0,1,200.38,94,3.62,3.62,0,0,1,202.84,93.7Z" style="fill:#407BFF"></path><path d="M141.63,99.43a3,3,0,0,1-4.52-.3,3.59,3.59,0,0,1,2.33-.88A3.64,3.64,0,0,1,141.63,99.43Z" style="fill:#407BFF"></path></g><g id="freepik--Lettuce--inject-3"><path d="M241.7,137.88l-.06,0h-.09c-2.37-.55-8.35-.36-10.61-.86-2.66-.58-1.13-2.18-5.1-2.36s-12.44,1-17.39,1.23-7.33-.64-12.94-.12-13,2.21-19.06,3c-5.83.79-11.4.87-17.57,1.95s-11.44,2.92-17.19,4.17c-6,1.29-13.63,2.25-19,3.64s-7.47,3-12.12,4.53-13.11,3.27-16.76,4.78-1.69,2.51-4,4c-2,1.25-7.68,3.11-9.7,4.45h0l-.08.05h0c-3.2,2-3.41,5.24-2.9,8.73s2.46,13.9,12,9.51,10.31-3.08,26,.25,23.38-7.25,31.09-8.94,19.54,4.53,30.42.4c11.63-4.41,17.65-13.82,30-11.38s21.41-2.72,22.94-7.5,17.53,1.69,19.44-5.87S247.51,139.12,241.7,137.88Z" style="fill:#407BFF"></path><path d="M100.08,171.67c-9.84,0-15.48-1.16-17.59-2.8a.5.5,0,0,1-.08-.7.5.5,0,0,1,.7-.09c4.87,3.79,29.22,4.1,72.65-3.75,44.69-8.08,63.07-16.49,63.25-16.58a.5.5,0,0,1,.42.91c-.18.08-18.68,8.55-63.49,16.65C130.28,170,112.06,171.67,100.08,171.67Z" style="fill:#fff"></path></g></svg>