<svg xmlns="http://www.w3.org/2000/svg" viewBox="0 0 500 500"><g id="freepik--Shadow--inject-6"><ellipse id="freepik--path--inject-6" cx="250" cy="416.24" rx="193.89" ry="11.32" style="fill:#f5f5f5"></ellipse></g><g id="freepik--character-1--inject-6"><rect x="137.53" y="270.43" width="10.31" height="141.93" transform="translate(285.37 682.78) rotate(180)" style="fill:#407BFF"></rect><path d="M138.44,409.66h8.49l5.79,4.3a1.26,1.26,0,0,1-.75,2.28H133.41a1.27,1.27,0,0,1-.76-2.28Z" style="fill:#407BFF"></path><rect x="145.22" y="270.43" width="0.92" height="145.81" transform="translate(291.37 686.66) rotate(180)" style="fill:#fff;opacity:0.2"></rect><rect x="138.59" y="270.43" width="3.11" height="145.81" transform="translate(280.29 686.66) rotate(180)" style="fill:#fff;opacity:0.2"></rect><path d="M169.23,270.43H120.75c-.48,0-.92-.44-1.2-1.16l-6.36-16.8c-.69-1.81,0-4.31,1.2-4.31h5a79.87,79.87,0,0,1,34.82,8.24L167,262.58a7.29,7.29,0,0,1,3.23,4.13h0C170.85,268.27,170.25,270.43,169.23,270.43Z" style="fill:#407BFF"></path><rect x="137.53" y="270.43" width="10.31" height="3.19" transform="translate(285.37 544.04) rotate(180)" style="opacity:0.2"></rect><path d="M128.05,167.67c-5.58,1.11-9,19.33-3.11,24.77,6.28,2.34,26.64,3.56,34.64-3.22-2.41-3.89-.13-9.32-2.91-19.47S131.91,154,128.05,167.67Z" style="fill:#263238"></path><path d="M165.58,207.72c.24.82.6,1.81.92,2.73s.7,1.86,1.08,2.77c.77,1.83,1.59,3.64,2.5,5.38a38.7,38.7,0,0,0,6.62,9.32,20.38,20.38,0,0,0,4.21,3.25,17.5,17.5,0,0,0,4.94,1.78A56.18,56.18,0,0,0,197.71,234l.59,3.7c-1.13.32-2.17.53-3.27.74a32.53,32.53,0,0,1-3.29.45,34.89,34.89,0,0,1-6.79.1,21.34,21.34,0,0,1-7.13-1.78,25.82,25.82,0,0,1-6-4.11,42.09,42.09,0,0,1-8.35-10.94,58.74,58.74,0,0,1-2.91-6c-.42-1-.83-2.07-1.2-3.12s-.71-2.07-1.05-3.28Z" style="fill:#ff8b7b"></path><path d="M159.8,200.05c3,.84,9.66,13.08,9.66,13.08l-8.77,6.79s-9.75-10.5-8.46-14.38C153.58,201.5,155.38,198.82,159.8,200.05Z" style="fill:#263238"></path><path d="M158.68,209.39c-.58-.64-3.7.44-4.13,2.74a65.06,65.06,0,0,0,5.44,7,4.89,4.89,0,0,1,.53.55C161.06,215.39,159.79,210.6,158.68,209.39Z" style="opacity:0.2"></path><path d="M196.06,234.2l5.6-2,.23,5.7a5.63,5.63,0,0,1-5.26-.14Z" style="fill:#ff8b7b"></path><path d="M159.93,200.08s3.47,1.38-5.25,44.45l-30-1.16c1-12.19,1.27-19.72-3.6-45a89.72,89.72,0,0,1,12.81-1.19,94.65,94.65,0,0,1,13.62.53C153.34,198.47,159.93,200.08,159.93,200.08Z" style="fill:#263238"></path><path d="M121.82,202.27a11.91,11.91,0,0,1,5.92,5.89c1.41,3.33-2.32,10.1-3.2,11.62C124,215.06,123.14,209.44,121.82,202.27Z" style="opacity:0.2"></path><path d="M135.77,183.54c.69,4.42,1.3,10.84-1.88,13.64,0,0,.54,2.51,11.36,11.87,7.1-8.27,2.26-11.34,2.26-11.34-4.84-1.36-4.64-3.33-3.66-6.71Z" style="fill:#ff8b7b"></path><path d="M139.06,186.59l4.79,4.41a13,13,0,0,0-.51,2.4c-1.86-.34-4.74-2.05-5.06-4.09A5.9,5.9,0,0,1,139.06,186.59Z" style="opacity:0.2"></path><path d="M130,175.59c1.39,7.2,1.83,10.28,6,13.53,6.24,4.89,14.79,1.6,15.58-5.87.71-6.73-1.69-17.38-9.17-19.34A10,10,0,0,0,130,175.59Z" style="fill:#ff8b7b"></path><path d="M131.91,181.28c2.53-.49,10.59-9.95-1.33-13C126.5,172.75,126.24,178,131.91,181.28Z" style="fill:#263238"></path><path d="M131.05,170.26c7.45.82,21-.26,15-5.59S127.93,162.61,131.05,170.26Z" style="fill:#263238"></path><path d="M141.84,176c.08.59.45,1,.84,1s.64-.58.56-1.17-.45-1-.84-1S141.76,175.41,141.84,176Z" style="fill:#263238"></path><path d="M148.52,175.14c.08.59.46,1,.84,1s.64-.58.56-1.17-.45-1-.84-1S148.45,174.54,148.52,175.14Z" style="fill:#263238"></path><path d="M148.92,174l1.36-.6S149.7,174.64,148.92,174Z" style="fill:#263238"></path><path d="M146.6,176.47a16.24,16.24,0,0,0,2.6,3.5,2.55,2.55,0,0,1-2,.67Z" style="fill:#ff5652"></path><path d="M144.22,183.37a5.33,5.33,0,0,0,.88,0,.17.17,0,0,0,.15-.2.16.16,0,0,0-.19-.15,4.72,4.72,0,0,1-4.06-1.34.17.17,0,0,0-.25,0,.17.17,0,0,0,0,.24A4.9,4.9,0,0,0,144.22,183.37Z" style="fill:#263238"></path><path d="M129.31,181.81a5.32,5.32,0,0,0,3.2,2.55c1.81.51,2.72-1.11,2.21-2.82-.45-1.54-1.94-3.66-3.76-3.41A2.41,2.41,0,0,0,129.31,181.81Z" style="fill:#ff8b7b"></path><path d="M140,174a.34.34,0,0,0,.31-.27,4.15,4.15,0,0,1,2.3-2.4.35.35,0,1,0-.27-.64,4.74,4.74,0,0,0-2.71,2.89.35.35,0,0,0,.26.42A.2.2,0,0,0,140,174Z" style="fill:#263238"></path><path d="M150.87,171.48a.31.31,0,0,0,.3-.16.33.33,0,0,0-.11-.48,3.45,3.45,0,0,0-3.17-.34.35.35,0,0,0-.18.46.35.35,0,0,0,.47.17,2.79,2.79,0,0,1,2.51.3A.41.41,0,0,0,150.87,171.48Z" style="fill:#263238"></path><polygon points="159.14 356.79 166.46 357.82 171.21 341.2 163.88 340.17 159.14 356.79" style="fill:#ff8b7b"></polygon><path d="M167.24,357.3l-7.41-3.75a.59.59,0,0,0-.76.18l-3.81,5.43a1.18,1.18,0,0,0,.46,1.71c2.61,1.27,3.93,1.75,7.19,3.4,2,1,5.71,3.73,8.47,5.13s4.31-1.26,3.28-2.09a19.2,19.2,0,0,1-6.53-9A1.92,1.92,0,0,0,167.24,357.3Z" style="fill:#263238"></path><g style="opacity:0.2"><polygon points="163.88 340.18 171.21 341.21 168.56 350.47 161.3 349.21 163.88 340.18"></polygon></g><path d="M154,244.22s34,22.39,36.63,41.9c3.12,23.17-19.89,62.21-19.89,62.21l-10-1.4s12.91-35.34,11.75-56c-7.94-17-46.27-31.31-37.68-47.55Z" style="fill:#407BFF"></path><path d="M154,244.22s34,22.39,36.63,41.9c3.12,23.17-19.89,62.21-19.89,62.21l-10-1.4s12.91-35.34,11.75-56c-7.94-17-46.27-31.31-37.68-47.55Z" style="opacity:0.30000000000000004"></path><polygon points="159.56 347.29 171.94 349.03 173.81 345.32 159.33 342.61 159.56 347.29" style="fill:#407BFF"></polygon><path d="M170.25,359.91l.09,0a1,1,0,0,0,.68-.7.58.58,0,0,0-.09-.59c-.59-.74-3.25-.46-3.55-.43a.18.18,0,0,0-.15.13.17.17,0,0,0,.06.18C168,359.09,169.35,360.08,170.25,359.91Zm-2.41-1.43c1.07-.08,2.51-.05,2.82.34a.24.24,0,0,1,0,.26.65.65,0,0,1-.44.47C169.76,359.7,168.87,359.29,167.84,358.48Z" style="fill:#407BFF"></path><path d="M167.68,358.49c.9-.17,2.48-.9,2.69-1.64a.61.61,0,0,0-.31-.7.91.91,0,0,0-.77-.13c-1,.27-2,2.17-2,2.25a.2.2,0,0,0,0,.17.21.21,0,0,0,.16.08Zm1.76-2.14a.56.56,0,0,1,.43.09c.18.12.18.23.16.32-.14.49-1.43,1.18-2.31,1.37.36-.62,1-1.61,1.66-1.77Z" style="fill:#407BFF"></path><path d="M150.36,254.78l8.18,20.85c5,4.09,9.63,8.26,12.47,12.6a15.89,15.89,0,0,0,.46-4.34C171.25,276.11,160.14,259.78,150.36,254.78Z" style="opacity:0.2"></path><polygon points="149.59 366.07 156.98 366.02 159.24 348.88 151.85 348.93 149.59 366.07" style="fill:#ff8b7b"></polygon><path d="M157.67,365.39l-7.88-2.63a.58.58,0,0,0-.72.29l-3,5.93a1.19,1.19,0,0,0,.71,1.62c2.76.88,4.14,1.16,7.6,2.31,2.14.72,6.2,2.86,9.14,3.84s4.07-1.87,2.94-2.54a19.12,19.12,0,0,1-7.78-8A1.94,1.94,0,0,0,157.67,365.39Z" style="fill:#263238"></path><g style="opacity:0.2"><polygon points="151.85 348.94 159.24 348.89 157.98 358.43 150.62 358.25 151.85 348.94"></polygon></g><path d="M146.75,244.22s23,28.85,23.25,48.53c.26,23.37-10.15,63.25-10.15,63.25l-10.08.07s.29-40.12,1.67-60.77c-5.8-17.83-35.35-35.69-26.76-51.93Z" style="fill:#407BFF"></path><path d="M146.75,244.22s23,28.85,23.25,48.53c.26,23.37-10.15,63.25-10.15,63.25l-10.08.07s.29-40.12,1.67-60.77c-5.8-17.83-35.35-35.69-26.76-51.93Z" style="opacity:0.30000000000000004"></path><polygon points="148.61 356.6 161.12 356.52 162.42 352.58 147.71 352.01 148.61 356.6" style="fill:#407BFF"></polygon><path d="M161,367.53l.08,0a1,1,0,0,0,.57-.79.6.6,0,0,0-.18-.58c-.69-.64-3.28,0-3.57.1a.17.17,0,0,0-.13.14.18.18,0,0,0,.08.18C158.7,367.05,160.17,367.83,161,367.53Zm-2.6-1.06c1.05-.24,2.47-.42,2.84-.08a.27.27,0,0,1,.07.25.68.68,0,0,1-.37.54C160.51,367.39,159.58,367.12,158.44,366.47Z" style="fill:#407BFF"></path><path d="M158.28,366.5c.87-.3,2.33-1.26,2.42-2a.61.61,0,0,0-.4-.65.93.93,0,0,0-.78,0c-1,.42-1.67,2.44-1.7,2.52a.17.17,0,0,0,0,.17.19.19,0,0,0,.17.06Zm1.43-2.38a.56.56,0,0,1,.44,0c.2.1.21.21.2.29-.06.51-1.24,1.38-2.08,1.69.26-.66.8-1.74,1.39-2Z" style="fill:#407BFF"></path><path d="M142.23,174.9l1.37-.6S143,175.51,142.23,174.9Z" style="fill:#263238"></path><path d="M124.29,241.59l-.87,2.66c-.11.2.13.43.48.44l30.87,1.19c.27,0,.5-.11.53-.28l.37-2.68c0-.18-.2-.35-.5-.36l-30.38-1.17A.56.56,0,0,0,124.29,241.59Z" style="fill:#fff"></path><path d="M128.34,245.15l-.81,0c-.16,0-.28-.09-.27-.19l.52-3.48c0-.1.16-.18.32-.17l.81,0c.17,0,.29.09.27.2l-.51,3.47C128.65,245.08,128.51,245.16,128.34,245.15Z" style="fill:#407BFF"></path><path d="M128.34,245.15l-.81,0c-.16,0-.28-.09-.27-.19l.52-3.48c0-.1.16-.18.32-.17l.81,0c.17,0,.29.09.27.2l-.51,3.47C128.65,245.08,128.51,245.16,128.34,245.15Z" style="opacity:0.30000000000000004"></path><path d="M152.48,246.08l-.82,0c-.16,0-.28-.09-.27-.19l.52-3.48c0-.1.16-.18.32-.17l.82,0c.16,0,.28.09.26.2l-.51,3.47C152.78,246,152.64,246.09,152.48,246.08Z" style="fill:#407BFF"></path><path d="M152.48,246.08l-.82,0c-.16,0-.28-.09-.27-.19l.52-3.48c0-.1.16-.18.32-.17l.82,0c.16,0,.28.09.26.2l-.51,3.47C152.78,246,152.64,246.09,152.48,246.08Z" style="opacity:0.30000000000000004"></path><path d="M140.46,245.62l-.81,0c-.17,0-.29-.1-.27-.2l.51-3.47c0-.1.17-.18.33-.18l.81,0c.16,0,.28.09.27.19l-.52,3.48C140.77,245.55,140.62,245.63,140.46,245.62Z" style="fill:#407BFF"></path><path d="M140.46,245.62l-.81,0c-.17,0-.29-.1-.27-.2l.51-3.47c0-.1.17-.18.33-.18l.81,0c.16,0,.28.09.27.19l-.52,3.48C140.77,245.55,140.62,245.63,140.46,245.62Z" style="opacity:0.30000000000000004"></path><polygon points="204.64 232.73 206.46 237.68 201.89 237.86 201.66 232.16 204.64 232.73" style="fill:#ff8b7b"></polygon><path d="M152.68,232.34l2.18-6,3.77,6.5s-2.23,3-5.27,2.52Z" style="fill:#ff8b7b"></path><path d="M124.76,207.58c.14,2.22.34,4.65.63,7s.58,4.69,1,7,.85,4.64,1.43,6.9c.27,1.14.58,2.26.91,3.37l.52,1.66.06.21,0,0a.11.11,0,0,0,0,.06.75.75,0,0,0,.06.13,2.84,2.84,0,0,0,1.46.74,12.45,12.45,0,0,0,2.9.35,41,41,0,0,0,6.76-.55c2.32-.35,4.66-.83,7-1.39s4.68-1.17,7-1.81l1.37,3.49A82.73,82.73,0,0,1,141.67,240a40.77,40.77,0,0,1-7.78,1.31,18.61,18.61,0,0,1-4.4-.24,9.14,9.14,0,0,1-5-2.5,7.21,7.21,0,0,1-1-1.36,6.65,6.65,0,0,1-.39-.75l-.16-.37-.08-.23-.68-1.81c-.43-1.21-.84-2.43-1.21-3.66a73.52,73.52,0,0,1-1.87-7.4q-.77-3.72-1.25-7.49c-.3-2.53-.55-5-.63-7.64Z" style="fill:#ff8b7b"></path><path d="M120.15,198.55c-5.76,2-3.33,17-3.33,17L130,212.57s-.34-6.3-2.47-9.79S123.33,197.45,120.15,198.55Z" style="fill:#263238"></path><path d="M164.73,231.79a.54.54,0,0,1-.34-.12l-11.62-10a.52.52,0,0,1,.67-.79l11.63,10a.51.51,0,0,1,.06.73A.53.53,0,0,1,164.73,231.79Z" style="fill:#407BFF"></path><polygon points="160.11 222.98 162.98 228.59 158.63 232.79 154.86 226.3 160.11 222.98" style="fill:#ff8b7b"></polygon><path d="M161.28,230.54c0,3.58,6.64,6.49,14.83,6.49s14.83-2.91,14.83-6.49Z" style="fill:#407BFF"></path><path d="M161.28,230.54c0,3.58,6.64,6.49,14.83,6.49s14.83-2.91,14.83-6.49Z" style="fill:#fff;opacity:0.7000000000000001"></path></g><g id="freepik--Table--inject-6"><rect x="125.82" y="237.03" width="234.13" height="5.56" style="fill:#407BFF"></rect><rect x="228.63" y="248.16" width="28.51" height="164.24" style="fill:#407BFF"></rect><polygon points="346.86 248.16 138.91 248.16 131.51 242.59 354.25 242.59 346.86 248.16" style="fill:#407BFF"></polygon><polygon points="346.86 248.16 138.91 248.16 131.51 242.59 354.25 242.59 346.86 248.16" style="fill:#fff;opacity:0.7000000000000001"></polygon><path d="M253.51,399.76H232.26l-14.49,10.77a3.17,3.17,0,0,0,1.89,5.71h46.45a3.17,3.17,0,0,0,1.89-5.71Z" style="fill:#407BFF"></path><rect x="233.32" y="248.16" width="2.55" height="168.08" style="fill:#fff;opacity:0.2"></rect><rect x="245.6" y="248.16" width="8.61" height="168.08" style="fill:#fff;opacity:0.2"></rect><rect x="228.63" y="248.16" width="28.51" height="4.26" style="opacity:0.2"></rect><rect x="233.48" y="193.4" width="39.05" height="43.63" style="fill:#407BFF"></rect><polygon points="239.5 188.75 230.24 188.75 233.48 193.4 242.74 193.4 239.5 188.75" style="fill:#407BFF"></polygon><polygon points="266.5 188.75 275.76 188.75 272.53 193.4 263.27 193.4 266.5 188.75" style="fill:#407BFF"></polygon><polygon points="266.5 188.75 275.76 188.75 272.53 193.4 263.27 193.4 266.5 188.75" style="opacity:0.2"></polygon><rect x="249.73" y="198.64" width="22.8" height="20.28" style="fill:#fff;opacity:0.30000000000000004"></rect><rect x="249.73" y="221.7" width="22.8" height="5.1" style="fill:#fff;opacity:0.30000000000000004"></rect><rect x="233.48" y="193.4" width="9.26" height="43.63" style="opacity:0.2"></rect><rect x="211.93" y="207.25" width="23.75" height="29.78" style="fill:#407BFF"></rect><polygon points="229.26 201.85 219.95 201.85 211.93 207.25 235.68 207.25 229.26 201.85" style="fill:#407BFF"></polygon><rect x="219.95" y="200.41" width="9.31" height="1.44" style="fill:#407BFF"></rect><polygon points="229.26 201.85 219.95 201.85 211.93 207.25 221.19 207.25 229.26 201.85" style="opacity:0.2"></polygon><rect x="222.83" y="215.21" width="12.85" height="11.75" style="fill:#fff;opacity:0.30000000000000004"></rect><rect x="211.93" y="207.25" width="9.26" height="29.78" style="opacity:0.2"></rect></g><g id="freepik--character-2--inject-6"><path d="M290.11,222.2a14.83,14.83,0,0,0,29.66,0Z" style="fill:#407BFF"></path><path d="M290.11,222.2a14.83,14.83,0,0,0,29.66,0Z" style="fill:#fff;opacity:0.7000000000000001"></path><path d="M318.39,180l-1.86-4.57L309,181.42a25.44,25.44,0,0,0,5.83,2.57,2.38,2.38,0,0,0,2.94-1.63Z" style="fill:#ff8b7b"></path><polygon points="309.54 172.39 303.52 177.6 308.96 181.42 316.53 175.47 309.54 172.39" style="fill:#ff8b7b"></polygon><path d="M301.72,175.33c0,1-2,2.33-4.49,2.42s-4.62-1.14-4.66-2.1,2-1.46,4.53-1.55S301.69,174.37,301.72,175.33Z" style="fill:#263238"></path><path d="M300,176a.52.52,0,0,1-.07-1l15.19-1.89a.51.51,0,0,1,.58.45.51.51,0,0,1-.45.58L300.09,176Z" style="fill:#263238"></path><path d="M358.78,186.55c-.38.86-.7,1.53-1,2.28s-.73,1.43-1.1,2.14q-1.11,2.11-2.33,4.19a82.06,82.06,0,0,1-5.38,8,58.92,58.92,0,0,1-6.62,7.43,37.61,37.61,0,0,1-4,3.33c-.73.52-1.47,1-2.27,1.49l-.59.35-.28.16-.39.2a6,6,0,0,1-.85.35,7.33,7.33,0,0,1-3.75.25,8.31,8.31,0,0,1-2.73-1.06,10.77,10.77,0,0,1-1.69-1.28,16.5,16.5,0,0,1-2.12-2.44,33.73,33.73,0,0,1-2.7-4.56,77,77,0,0,1-3.64-8.89,134.6,134.6,0,0,1-4.81-17.94L318,179c2.31,5.48,4.74,11,7.28,16.27a81,81,0,0,0,4.08,7.53,23.7,23.7,0,0,0,2.19,3.07,5.64,5.64,0,0,0,.94.9c.21.19.32,0-.48-.18a3.2,3.2,0,0,0-1.52.08l-.33.13-.14.07-.07,0,0,0,.36-.26c.49-.34,1-.73,1.44-1.12a34.8,34.8,0,0,0,2.79-2.67,57.32,57.32,0,0,0,5.11-6.38c1.6-2.3,3.12-4.7,4.54-7.17.72-1.23,1.42-2.48,2.09-3.74l1-1.89c.32-.61.66-1.3.91-1.81Z" style="fill:#ff8b7b"></path><path d="M367.29,180.76c1.63,7.13-12.72,22.41-12.72,22.41l-15.36-9a115.89,115.89,0,0,1,10.68-15.09C356.25,171.65,365.62,173.48,367.29,180.76Z" style="fill:#407BFF"></path><path d="M333.42,192c-1.47,2.24-3,4.61-4.48,6.95s-2.92,4.72-4.35,7.09c-2.83,4.76-5.56,9.56-8,14.42-.63,1.21-1.16,2.44-1.75,3.66s-1.09,2.43-1.58,3.65l-.7,1.83-.17.45-.09.23s0,0,0,0,0-.2,0-.49a2.51,2.51,0,0,0-.31-.95,1.69,1.69,0,0,0-.51-.58c-.27-.16-.17,0,.1.17a11.23,11.23,0,0,0,2.84.92,37.75,37.75,0,0,0,3.77.58c2.61.29,5.42.46,8.1.59l.83,5.69a51.94,51.94,0,0,1-8.85,1.86,36.19,36.19,0,0,1-4.73.26,18.74,18.74,0,0,1-5.45-.81,9.88,9.88,0,0,1-3.54-2,7.66,7.66,0,0,1-2.58-5.29,9,9,0,0,1,.22-2.59l.14-.53.08-.27.18-.55.69-2.19c.49-1.44,1-2.84,1.56-4.25s1.12-2.76,1.74-4.1a171.77,171.77,0,0,1,8-15.59c1.44-2.52,2.93-5,4.49-7.44s3.08-4.85,4.81-7.3Z" style="fill:#ff8b7b"></path><polygon points="330.36 230.05 330.82 238.33 339.62 237.75 336.1 232.12 330.36 230.05" style="fill:#ff8b7b"></polygon><path d="M325.3,230.54l5.06-.49,2.71,4.47a2.67,2.67,0,0,1-2.25,3.81,13.58,13.58,0,0,1-7.22-2.23Z" style="fill:#ff8b7b"></path><path d="M329.1,156.69c.24.57.13,1.17-.24,1.34s-.85-.15-1.09-.72-.13-1.18.23-1.35S328.86,156.12,329.1,156.69Z" style="fill:#263238"></path><path d="M329.28,157.84a23,23,0,0,1-.65,6.12,3.48,3.48,0,0,0,2.89-.72Z" style="fill:#ff5652"></path><path d="M326.85,153.38a.37.37,0,0,0,.19-.11,2.83,2.83,0,0,1,2.52-.64.37.37,0,0,0,.43-.28.37.37,0,0,0-.28-.43,3.52,3.52,0,0,0-3.19.85.35.35,0,0,0,0,.51A.38.38,0,0,0,326.85,153.38Z" style="fill:#263238"></path><path d="M350.36,157c1,6.24.06,14.16,4.46,17.14,0,0-.68,5.92-10.92,7.83-11.25,2.11-6.21-4.62-6.21-4.62,5.93-2.63,5.09-7.19,3.39-11.3Z" style="fill:#ff8b7b"></path><path d="M309.85,396.66a1,1,0,0,1-.51-.12.69.69,0,0,1-.28-.75c.21-1.56,4.1-1.15,4.55-1.1a.18.18,0,0,1,.15.14.18.18,0,0,1-.07.19A9.47,9.47,0,0,1,309.85,396.66Zm2.28-1.69c-1.21,0-2.62.17-2.71.87,0,.29.07.36.11.39.5.3,2.28-.46,3.52-1.23C312.78,395,312.46,395,312.13,395Z" style="fill:#407BFF"></path><path d="M313.59,395.05h0c-1,0-3.25-.79-3.48-1.66-.05-.21,0-.51.43-.76a1.31,1.31,0,0,1,1-.11c1.19.35,2.14,2.19,2.18,2.27a.19.19,0,0,1,0,.18A.18.18,0,0,1,313.59,395.05Zm-2.42-2.23a.87.87,0,0,0-.46.13c-.3.17-.26.3-.25.35.13.52,1.73,1.22,2.8,1.36-.31-.51-1-1.56-1.79-1.8A1,1,0,0,0,311.17,392.82Z" style="fill:#407BFF"></path><polygon points="321.3 391.47 314.28 394.56 307.06 378.35 314.07 375.26 321.3 391.47" style="fill:#ff8b7b"></polygon><path d="M314,393.72l7.66-3.38a.64.64,0,0,1,.79.23l3.89,5.72a1.17,1.17,0,0,1-.5,1.72c-2.79,1.17-6.84,2.76-10.32,4.29-4.06,1.79-3.7,2-8.46,4.07-2.88,1.27-4.85-1.34-3.75-2.14,5-3.64,5.66-4.15,9.22-9.21A3.67,3.67,0,0,1,314,393.72Z" style="fill:#263238"></path><path d="M328.73,212.87c1.11,8.48,1.69,12.56,3,25.76h41c.29-14.07,1.42-39.91-1.59-55.36a13.39,13.39,0,0,0-13.4-10.88l-.45,0a127.84,127.84,0,0,0-16.33,2.71,78.7,78.7,0,0,0-11.52,3.57s-3,4.2-1.88,22C327.75,204.21,328.13,208.24,328.73,212.87Z" style="fill:#407BFF"></path><path d="M328.73,212.87c1.91-4.8,5.26-14.37,4-19.42l-5.2,7.24C327.75,204.21,328.13,208.24,328.73,212.87Z" style="opacity:0.2"></path><path d="M338.23,184.58c1.54,7.14-12.73,26.64-12.73,26.64l-14.5-9.1s4.25-10.05,10.32-17.57C328.1,176.15,336.5,176.55,338.23,184.58Z" style="fill:#407BFF"></path><polygon points="307.06 378.36 310.79 386.71 317.8 383.62 314.08 375.27 307.06 378.36" style="opacity:0.2"></polygon><path d="M347.31,146.84c2.5,7.21,4.31,11.29,2.33,16.5a9.89,9.89,0,0,1-17.38,2.3c-4.1-5.62-7.49-16.46-1.9-22.37A10,10,0,0,1,347.31,146.84Z" style="fill:#ff8b7b"></path><path d="M334,154.45c-3-2.09-4.17-5.45-3-7.71s8.58-5.74,12.23-6.09,8.23-.5,9.34,2.67c1.22,3.48.86,14.47-1.4,16.69-1.93,1.91-6,4.07-9.33,2.9C340.16,162.32,333.35,161.4,334,154.45Z" style="fill:#263238"></path><path d="M332.55,147.88c-3.26,2-10.21,2.18-8.48-4.34a8.17,8.17,0,0,1,7.87-6.35c-1.26,2-.61,4.57,3.22.65s17.08-5.91,14.56,4.61C346.84,154.48,332.55,147.88,332.55,147.88Z" style="fill:#263238"></path><path d="M348.73,141.47A5,5,0,0,1,355,141,20.09,20.09,0,0,0,348.73,141.47Z" style="fill:#263238"></path><path d="M337.56,153.61a9.07,9.07,0,0,1-.84,5.56c-1.15,2.25-3.09,1.61-3.92-.5-.74-1.9-1-5.36.68-6.91S337.14,151.35,337.56,153.61Z" style="fill:#ff8b7b"></path><path d="M338.71,391.17a.83.83,0,0,1-.43-.09.67.67,0,0,1-.32-.73c.13-1.58,4-1.35,4.49-1.32a.2.2,0,0,1,.16.13.19.19,0,0,1-.06.2C341.83,389.91,339.83,391.17,338.71,391.17Zm2.92-1.8c-1.29,0-3.24.18-3.31,1,0,.29.09.36.13.38.51.28,2.26-.57,3.46-1.39Z" style="fill:#407BFF"></path><path d="M342.37,389.4c-1,0-3.22-.66-3.48-1.5-.06-.21-.05-.51.39-.78a1.26,1.26,0,0,1,1-.16c1.2.3,2.23,2.09,2.27,2.16a.19.19,0,0,1,0,.18.2.2,0,0,1-.15.1Zm-2.4-2.12a.94.94,0,0,0-.5.15c-.29.18-.25.32-.23.36.16.52,1.79,1.14,2.86,1.23a4.12,4.12,0,0,0-1.87-1.71Z" style="fill:#407BFF"></path><polygon points="349.98 385.46 343.12 388.88 335.15 373.02 342.01 369.61 349.98 385.46" style="fill:#ff8b7b"></polygon><path d="M342.8,388l7.49-3.72a.63.63,0,0,1,.8.18l4.15,5.55a1.15,1.15,0,0,1-.42,1.73c-2.73,1.3-6.71,3.08-10.1,4.77-4,2-3.41,2-8.07,4.34-2.82,1.4-4.9-1.11-3.84-2,4.83-3.87,5.25-4.3,8.58-9.52A3.71,3.71,0,0,1,342.8,388Z" style="fill:#263238"></path><polygon points="335.15 373.02 339.26 381.2 346.12 377.78 342.01 369.61 335.15 373.02" style="opacity:0.2"></polygon><path d="M346.11,238.63S311,281,307.06,303.56c5.43,21.21,28.46,76.3,28.46,76.3l10.74-6S335,312.43,331.77,308.14c16.18-17.59,26.29-34.75,34.87-46.25s6.05-23.26,6.05-23.26Z" style="fill:#263238"></path><path d="M316,292.5c9.6-1.47,29-20.83,35.33-27.33s-11.27-13.5-11.27-13.5Z" style="opacity:0.2"></path><path d="M331.7,238.63S281,285.52,280.91,308.89c4.3,23.19,26.25,77.71,26.25,77.71l11.53-6S306,315,302.74,310.75c44.67-46.75,59.59-72.12,59.59-72.12Z" style="fill:#263238"></path><path d="M303.33,382.41c-.05,0,2.65,4.72,2.65,4.72l14.46-6.37-1.38-4.65Z" style="fill:#407BFF"></path><path d="M331.79,376.6c-.06,0,2.91,4.57,2.91,4.57L348.77,374l-1.63-4.56Z" style="fill:#407BFF"></path><rect x="347.41" y="270.43" width="10.31" height="141.93" style="fill:#407BFF"></rect><path d="M356.8,409.66h-8.48l-5.79,4.3a1.26,1.26,0,0,0,.75,2.28h18.56a1.26,1.26,0,0,0,.75-2.28Z" style="fill:#407BFF"></path><rect x="349.1" y="270.43" width="0.92" height="145.81" style="fill:#fff;opacity:0.2"></rect><rect x="353.54" y="270.43" width="3.11" height="145.81" style="fill:#fff;opacity:0.2"></rect><path d="M326,270.43h48.47c.48,0,.93-.44,1.2-1.16l6.37-16.8c.69-1.81,0-4.31-1.2-4.31h-5a79.93,79.93,0,0,0-34.82,8.24l-12.84,6.18a7.3,7.3,0,0,0-3.24,4.13h0C324.4,268.27,325,270.43,326,270.43Z" style="fill:#407BFF"></path><rect x="347.41" y="270.43" width="10.31" height="3.19" style="opacity:0.2"></rect></g></svg>